<svg width="18" height="23" viewBox="0 0 18 23" fill="none" xmlns="http://www.w3.org/2000/svg">
<path d="M1 5.25C0.585786 5.25 0.25 5.58579 0.25 6C0.25 6.41421 0.585786 6.75 1 6.75V5.25ZM17.5303 6.53033C17.8232 6.23744 17.8232 5.76256 17.5303 5.46967L12.7574 0.696699C12.4645 0.403806 11.9896 0.403806 11.6967 0.696699C11.4038 0.989593 11.4038 1.46447 11.6967 1.75736L15.9393 6L11.6967 10.2426C11.4038 10.5355 11.4038 11.0104 11.6967 11.3033C11.9896 11.5962 12.4645 11.5962 12.7574 11.3033L17.5303 6.53033ZM1 6.75H17V5.25H1V6.75Z" fill="white" fill-opacity="0.75"/>
<path d="M17 17.75C17.4142 17.75 17.75 17.4142 17.75 17C17.75 16.5858 17.4142 16.25 17 16.25L17 17.75ZM0.469669 16.4697C0.176777 16.7626 0.176777 17.2374 0.469669 17.5303L5.24264 22.3033C5.53553 22.5962 6.01041 22.5962 6.3033 22.3033C6.59619 22.0104 6.59619 21.5355 6.3033 21.2426L2.06066 17L6.3033 12.7574C6.59619 12.4645 6.59619 11.9896 6.3033 11.6967C6.01041 11.4038 5.53553 11.4038 5.24264 11.6967L0.469669 16.4697ZM17 16.25L1 16.25L1 17.75L17 17.75L17 16.25Z" fill="white" fill-opacity="0.75"/>
</svg>
